<svg width="381" height="274" viewBox="0 0 381 274" fill="none" xmlns="http://www.w3.org/2000/svg">
<path d="M287.456 212.512C287.456 200.608 285.44 189.376 281.408 178.816C277.184 168.256 271.04 158.944 262.976 150.88C254.912 143.008 244.928 136.768 233.024 132.16C220.928 127.552 207.008 125.248 191.264 125.248C175.712 125.248 161.888 127.648 149.792 132.448C137.504 137.248 127.136 143.68 118.688 151.744C110.24 159.808 103.808 169.216 99.392 179.968C94.976 190.72 92.768 202.048 92.768 213.952C92.768 226.048 95.264 236.896 100.256 246.496C105.056 256.096 110.72 264.064 117.248 270.4L144.32 247.936C139.904 243.136 136.352 238.048 133.664 232.672C130.784 227.488 129.344 221.536 129.344 214.816C129.344 208.48 130.784 202.432 133.664 196.672C136.352 191.104 140.288 186.208 145.472 181.984C150.656 177.952 156.992 174.688 164.48 172.192C171.968 169.888 180.416 168.736 189.824 168.736C209.216 168.736 224.288 172.864 235.04 181.12C245.6 189.376 250.88 200.416 250.88 214.24C250.88 221.92 249.248 228.736 245.984 234.688C242.528 240.832 238.304 246.208 233.312 250.816L259.808 273.28C278.24 257.536 287.456 237.28 287.456 212.512Z" fill="white"/>
<path d="M287.456 100.512C287.456 88.608 285.44 77.376 281.408 66.816C277.184 56.256 271.04 46.944 262.976 38.88C254.912 31.008 244.928 24.768 233.024 20.16C220.928 15.552 207.008 13.248 191.264 13.248C175.712 13.248 161.888 15.648 149.792 20.448C137.504 25.248 127.136 31.68 118.688 39.744C110.24 47.808 103.808 57.216 99.392 67.968C94.976 78.72 92.768 90.048 92.768 101.952C92.768 114.048 95.264 124.896 100.256 134.496C105.056 144.096 110.72 152.064 117.248 158.4L144.32 135.936C139.904 131.136 136.352 126.048 133.664 120.672C130.784 115.488 129.344 109.536 129.344 102.816C129.344 96.48 130.784 90.432 133.664 84.672C136.352 79.104 140.288 74.208 145.472 69.984C150.656 65.952 156.992 62.688 164.48 60.192C171.968 57.888 180.416 56.736 189.824 56.736C209.216 56.736 224.288 60.864 235.04 69.12C245.6 77.376 250.88 88.416 250.88 102.24C250.88 109.92 249.248 116.736 245.984 122.688C242.528 128.832 238.304 134.208 233.312 138.816L259.808 161.28C278.24 145.536 287.456 125.28 287.456 100.512Z" fill="white"/>
<path d="M0.471566 111.236C1.61251 123.085 4.69577 134.072 9.72134 144.197C14.938 154.304 21.9463 162.984 30.746 170.238C39.5274 177.301 50.0635 182.555 62.3544 186.001C74.8363 189.428 88.9131 190.388 104.585 188.879C120.065 187.388 133.595 183.674 145.176 177.737C156.947 171.781 166.651 164.385 174.287 155.549C181.923 146.712 187.424 136.731 190.789 125.605C194.154 114.479 195.266 102.992 194.125 91.1426C192.966 79.1023 189.442 68.5434 183.553 59.4661C177.855 50.3704 171.453 42.9819 164.348 37.3008L139.553 62.2561C144.409 66.6107 148.432 71.3349 151.623 76.4285C154.987 81.3126 156.991 87.0992 157.635 93.7882C158.242 100.095 157.388 106.253 155.074 112.263C152.932 118.063 149.483 123.313 144.728 128.015C139.954 132.525 133.96 136.381 126.746 139.584C119.513 142.595 111.215 144.551 101.85 145.453C82.5471 147.311 67.1489 144.647 55.655 137.46C44.3524 130.254 38.0385 119.771 36.7136 106.01C35.9775 98.3656 36.9487 91.4246 39.6272 85.1872C42.4784 78.7402 46.1677 72.9841 50.695 67.9188L22.1679 48.0978C5.32978 65.5359 -1.90234 86.582 0.471566 111.236Z" fill="white"/>
<path d="M380.125 113.421C378.571 125.224 375.106 136.096 369.73 146.04C364.164 155.958 356.857 164.388 347.81 171.331C338.787 178.083 328.074 182.966 315.67 185.981C303.076 188.971 288.975 189.438 273.365 187.383C257.947 185.353 244.554 181.169 233.188 174.832C221.632 168.469 212.192 160.739 204.869 151.641C197.546 142.543 192.397 132.376 189.422 121.14C186.447 109.903 185.737 98.384 187.29 86.5818C188.869 74.5893 192.76 64.1599 198.962 55.2936C204.974 46.4022 211.63 39.2417 218.929 33.812L242.837 59.6174C237.832 63.7999 233.647 68.3808 230.28 73.3599C226.748 78.1237 224.543 83.8368 223.666 90.4993C222.839 96.7811 223.477 102.965 225.581 109.052C227.519 114.923 230.782 120.291 235.371 125.156C239.984 129.83 245.84 133.893 252.938 137.345C260.061 140.607 268.287 142.851 277.614 144.079C296.84 146.61 312.322 144.485 324.06 137.703C335.607 130.896 342.283 120.64 344.087 106.934C345.09 99.3197 344.361 92.349 341.902 86.0219C339.278 79.4794 335.792 73.598 331.444 68.3778L360.645 49.5645C376.864 67.5796 383.358 88.8653 380.125 113.421Z" fill="white"/>
<rect x="178" y="52" width="25" height="21" fill="white"/>
</svg>
