<svg width="389" height="282" viewBox="0 0 389 282" fill="none" xmlns="http://www.w3.org/2000/svg">
<g filter="url(#filter0_d)">
<path d="M291.456 212.512C291.456 200.608 289.44 189.376 285.408 178.816C281.184 168.256 275.04 158.944 266.976 150.88C258.912 143.008 248.928 136.768 237.024 132.16C224.928 127.552 211.008 125.248 195.264 125.248C179.712 125.248 165.888 127.648 153.792 132.448C141.504 137.248 131.136 143.68 122.688 151.744C114.24 159.808 107.808 169.216 103.392 179.968C98.976 190.72 96.768 202.048 96.768 213.952C96.768 226.048 99.264 236.896 104.256 246.496C109.056 256.096 114.72 264.064 121.248 270.4L148.32 247.936C143.904 243.136 140.352 238.048 137.664 232.672C134.784 227.488 133.344 221.536 133.344 214.816C133.344 208.48 134.784 202.432 137.664 196.672C140.352 191.104 144.288 186.208 149.472 181.984C154.656 177.952 160.992 174.688 168.48 172.192C175.968 169.888 184.416 168.736 193.824 168.736C213.216 168.736 228.288 172.864 239.04 181.12C249.6 189.376 254.88 200.416 254.88 214.24C254.88 221.92 253.248 228.736 249.984 234.688C246.528 240.832 242.304 246.208 237.312 250.816L263.808 273.28C282.24 257.536 291.456 237.28 291.456 212.512Z" fill="black"/>
<path d="M291.456 100.512C291.456 88.608 289.44 77.376 285.408 66.816C281.184 56.256 275.04 46.944 266.976 38.88C258.912 31.008 248.928 24.768 237.024 20.16C224.928 15.552 211.008 13.248 195.264 13.248C179.712 13.248 165.888 15.648 153.792 20.448C141.504 25.248 131.136 31.68 122.688 39.744C114.24 47.808 107.808 57.216 103.392 67.968C98.976 78.72 96.768 90.048 96.768 101.952C96.768 114.048 99.264 124.896 104.256 134.496C109.056 144.096 114.72 152.064 121.248 158.4L148.32 135.936C143.904 131.136 140.352 126.048 137.664 120.672C134.784 115.488 133.344 109.536 133.344 102.816C133.344 96.48 134.784 90.432 137.664 84.672C140.352 79.104 144.288 74.208 149.472 69.984C154.656 65.952 160.992 62.688 168.48 60.192C175.968 57.888 184.416 56.736 193.824 56.736C213.216 56.736 228.288 60.864 239.04 69.12C249.6 77.376 254.88 88.416 254.88 102.24C254.88 109.92 253.248 116.736 249.984 122.688C246.528 128.832 242.304 134.208 237.312 138.816L263.808 161.28C282.24 145.536 291.456 125.28 291.456 100.512Z" fill="black"/>
<path d="M4.47157 111.236C5.61251 123.085 8.69577 134.072 13.7213 144.197C18.938 154.304 25.9463 162.984 34.746 170.238C43.5274 177.301 54.0635 182.555 66.3544 186.001C78.8363 189.428 92.9131 190.388 108.585 188.879C124.065 187.388 137.595 183.674 149.176 177.737C160.947 171.781 170.651 164.385 178.287 155.549C185.923 146.712 191.424 136.731 194.789 125.605C198.154 114.479 199.266 102.992 198.125 91.1426C196.966 79.1023 193.442 68.5434 187.553 59.4661C181.855 50.3704 175.453 42.9819 168.348 37.3008L143.553 62.2561C148.409 66.6107 152.432 71.3349 155.623 76.4285C158.987 81.3126 160.991 87.0992 161.635 93.7882C162.242 100.095 161.388 106.253 159.074 112.263C156.932 118.063 153.483 123.313 148.728 128.015C143.954 132.525 137.96 136.381 130.746 139.584C123.513 142.595 115.215 144.551 105.85 145.453C86.5471 147.311 71.1489 144.647 59.655 137.46C48.3524 130.254 42.0385 119.771 40.7136 106.01C39.9775 98.3656 40.9487 91.4246 43.6272 85.1872C46.4784 78.7402 50.1677 72.9841 54.695 67.9188L26.1679 48.0978C9.32978 65.5359 2.09766 86.582 4.47157 111.236Z" fill="black"/>
<path d="M384.125 113.421C382.571 125.224 379.106 136.096 373.73 146.04C368.164 155.958 360.857 164.388 351.81 171.331C342.787 178.083 332.074 182.966 319.67 185.981C307.076 188.971 292.975 189.438 277.365 187.383C261.947 185.353 248.554 181.169 237.188 174.832C225.632 168.469 216.192 160.739 208.869 151.641C201.546 142.543 196.397 132.376 193.422 121.14C190.447 109.903 189.737 98.384 191.29 86.5818C192.869 74.5893 196.76 64.1599 202.962 55.2936C208.974 46.4022 215.63 39.2417 222.929 33.812L246.837 59.6174C241.832 63.7999 237.647 68.3808 234.28 73.3599C230.748 78.1237 228.543 83.8368 227.666 90.4993C226.839 96.7811 227.477 102.965 229.581 109.052C231.519 114.923 234.782 120.291 239.371 125.156C243.984 129.83 249.84 133.893 256.938 137.345C264.061 140.607 272.287 142.851 281.614 144.079C300.84 146.61 316.322 144.485 328.06 137.703C339.607 130.896 346.283 120.64 348.087 106.934C349.09 99.3197 348.361 92.349 345.902 86.0219C343.278 79.4794 339.792 73.598 335.444 68.3778L364.645 49.5645C380.864 67.5796 387.358 88.8653 384.125 113.421Z" fill="black"/>
<rect x="182" y="52" width="25" height="21" fill="black"/>
</g>
<defs>
<filter id="filter0_d" x="0.0315857" y="0" width="388.899" height="281.28" filterUnits="userSpaceOnUse" color-interpolation-filters="sRGB">
<feFlood flood-opacity="0" result="BackgroundImageFix"/>
<feColorMatrix in="SourceAlpha" type="matrix" values="0 0 0 0 0 0 0 0 0 0 0 0 0 0 0 0 0 0 127 0"/>
<feOffset dy="4"/>
<feGaussianBlur stdDeviation="2"/>
<feColorMatrix type="matrix" values="0 0 0 0 0 0 0 0 0 0 0 0 0 0 0 0 0 0 0.25 0"/>
<feBlend mode="normal" in2="BackgroundImageFix" result="effect1_dropShadow"/>
<feBlend mode="normal" in="SourceGraphic" in2="effect1_dropShadow" result="shape"/>
</filter>
</defs>
</svg>
